PathFileType	4	(X/Y/Z)	OpenSim_Sub09_CSBaseline_Accel.trc
DataRate	CameraRate	NumFrames	NumMarkers	Units	OrigDataRate	OrigDataStartFrame	OrigNumFrames
100	100	30	8	m	100	3651	5840
Frame#	Time	torso_imu_offset_imu	pelvis_imu_offset_imu	tibia_r_imu_offset_imu	femur_r_imu_offset_imu	tibia_l_imu_offset_imu	femur_l_imu_offset_imu	toes_r_imu_offset_imu	toes_l_imu_offset_imu
				X1	Y1	Z1	X2	Y2	Z2	X3	Y3	Z3	X4	Y4	Z4	X5	Y5	Z5	X6	Y6	Z6	X7	Y7	Z7	X8		Y8	Z8	

3651	36.50000000	8.76678451	1.18669219	6.67339913	9.18628524	-2.10426027	2.23896913	10.60993896	3.86553829	2.01134905	8.67931344	-3.57921528	3.65287594	9.97300280	-0.31480845	-0.04080092	9.50314147	1.20447383	-1.64465122	15.50257698	-2.65046475	11.55011172	4.99112137	2.43711097	11.04145618
3652	36.51000000	8.79461111	1.16230533	6.63880178	9.19185738	-2.02266870	2.14097132	11.23098730	2.73290339	2.66780172	8.98358887	-4.10325587	3.76836240	9.93751451	-0.51105164	-0.15945947	9.66811160	0.91041951	-1.70718067	16.12352965	-3.68901765	10.47155795	5.14073738	2.29195293	10.89637178
3653	36.52000000	8.80517359	1.15035462	6.62407026	9.18620998	-1.92932618	2.08116777	11.27912521	1.74922574	3.46164635	9.30225651	-4.38794069	3.80100183	9.85168359	-1.09632560	-0.11719447	9.55081407	0.76474778	-1.74658854	15.67281310	-4.26080367	9.16752184	5.31626795	2.33936316	10.77537470
3654	36.53000000	8.76853855	1.10536381	6.59318207	9.13236211	-1.89062910	2.12034834	10.86128934	0.98529549	3.46413291	9.52982977	-4.43877279	3.95734805	9.62507644	-1.36830915	-0.13663727	9.43489944	0.70693949	-1.85127959	14.56957598	-3.81753604	7.78903709	4.88980934	2.28591902	11.09825300
3655	36.54000000	8.74429873	1.09387301	6.57167682	9.08173707	-1.82173040	2.16821846	10.38153725	0.22730698	2.74525509	9.68283484	-4.48635765	4.21749180	9.56797449	-1.29778127	0.02492325	9.36514707	0.74806882	-1.87185445	13.36918427	-3.34711251	6.09445222	4.90667186	2.25807785	10.94951805
3656	36.55000000	8.71300939	1.10256606	6.52735201	9.01640846	-1.79241710	2.29797131	10.19660109	-0.52162090	2.79781882	9.68183980	-4.57005941	4.54590417	9.65177768	-0.89677319	0.16824302	9.36950674	0.79027923	-1.83324101	12.14390247	-2.63994875	4.22380552	5.03148205	2.25461395	10.88963009
3657	36.56000000	8.66622515	1.04672947	6.47487663	8.87476327	-1.89092321	2.44203280	9.95438546	-1.53186580	2.95243543	9.49196746	-4.79599160	4.81494260	9.70814137	-0.53653777	0.22158669	9.28095349	0.99674134	-1.87373905	11.74633286	-1.55889611	2.74352816	5.13764630	2.21199119	10.86692786
3658	36.57000000	8.67709033	1.02461109	6.44322487	8.78459581	-1.97321520	2.51342351	9.61548233	-2.51798730	2.72484003	9.20731515	-5.11676449	5.04302628	9.96844032	-0.23730709	0.40368074	9.33396440	1.22198073	-1.94547133	12.38102070	-0.11392321	1.81266415	4.82834710	2.22773045	10.93980383
3659	36.58000000	8.65163778	1.07680076	6.37158757	8.69764325	-2.07687863	2.57906170	9.36201439	-2.98990428	2.56497444	9.03369603	-5.39467720	5.18288900	10.06179270	-0.43815928	0.49887513	9.39364585	1.45175988	-1.89501596	13.46945159	1.19442817	1.14451643	4.58323320	2.46313020	11.17247978
3660	36.59000000	8.72822496	1.16187813	6.33823772	8.63421622	-2.22944204	2.52273114	8.81450975	-3.37084326	2.55637839	9.06365695	-5.62855503	5.16710922	10.01656900	-0.88006136	0.20345227	9.45319271	1.67365755	-1.74157865	14.50432635	1.41344886	-0.14013725	4.90429109	2.15644058	11.07709549
3661	36.60000000	8.78432580	1.23476260	6.24725949	8.59243955	-2.31045934	2.39611244	8.22724883	-3.47325748	2.89623518	9.20141873	-5.93374434	5.22225949	9.99129800	-1.16996329	-0.34740754	9.45082961	1.82197360	-1.63805143	14.42464316	2.09225509	-1.23229773	4.93740304	2.07294167	11.12959780
3662	36.61000000	8.86279842	1.25663127	6.28092021	8.54901686	-2.30431406	2.24930859	7.39601536	-3.42203996	2.58749714	9.37321187	-6.38147945	5.27633159	9.98249956	-1.45333015	-0.15037279	9.39809631	1.85511644	-1.61011693	13.63694186	2.36518871	-2.00822590	5.04287757	1.96512230	11.06696794
3663	36.62000000	8.92582109	1.31413190	6.24706334	8.58375702	-2.36292969	1.98467125	6.89543818	-2.54795450	2.19535794	9.37211290	-6.66699633	5.44938452	9.87910576	-1.57151191	-0.15645647	9.29284496	1.86695503	-1.62154913	12.43956519	2.44734347	-2.15657704	4.79608198	2.09441248	11.22484913
3664	36.63000000	9.03371727	1.30821704	6.22322431	8.62332088	-2.32587533	1.54389425	6.98902195	-1.34613678	1.59731810	9.17657677	-6.52751440	5.38638636	10.03559034	-1.45805994	-0.35152338	9.27371736	1.82330154	-1.69075253	11.39280070	2.34484547	-1.42036318	4.72917621	2.41108165	11.30457882
3665	36.64000000	9.13267359	1.25691991	6.27952134	8.67194179	-2.48041462	1.22377633	7.26535176	0.04468123	1.05091253	8.76054470	-5.91246608	4.86107020	10.06521782	-1.31752690	-0.78296082	9.18896336	1.74733131	-1.78261554	10.94331772	1.85499322	-0.12449864	4.94477439	2.57475466	11.23659058
3666	36.65000000	9.26532710	1.20589318	6.35342267	8.82149091	-2.42776502	1.10116599	7.24270539	1.30447381	0.85129337	8.26600173	-4.92762955	4.36930567	9.90677425	-1.54694587	-0.81725981	9.44477124	1.73004786	-2.05672171	10.63824349	0.86972969	1.01479199	5.29145693	2.23480803	11.11419635
3667	36.66000000	9.28974051	1.20766465	6.39436250	8.85356811	-2.74067514	0.76482446	6.80196174	2.29731634	0.86546503	7.82283581	-3.90834451	4.08012415	10.12215117	-1.81797439	-0.68639134	9.34673191	1.74990305	-2.21543828	9.96893976	-0.19427974	1.79625572	4.78643421	2.34860468	11.40913587
3668	36.67000000	9.21022199	1.14882107	6.37037212	8.97804581	-2.64087092	0.63742943	6.36854379	2.88026639	0.86831241	7.40535575	-3.02844507	3.74402869	10.42714528	-2.06580466	-0.13416424	9.40252259	1.75873964	-2.30764639	9.34444395	-1.30784614	2.18328148	4.68701397	1.82670727	11.53628070
3669	36.68000000	9.19041896	1.12714248	6.36132196	8.91876198	-2.96517696	0.44124771	6.15203192	3.06481716	0.53371406	6.83241795	-2.41315803	3.52414885	10.90469009	-2.07682781	0.42767258	9.75178880	1.75773897	-2.38186644	8.15142826	-1.86978337	3.57035923	4.77687836	1.48225511	11.75074248
3670	36.69000000	9.19784373	1.06890009	6.36781032	9.03528497	-2.71296333	0.42744492	6.12865345	3.03143649	0.31749356	6.40270052	-1.98926880	3.31418735	11.47909756	-1.92619807	1.33900801	10.14423882	1.91092207	-2.30097256	6.59420929	-5.35623116	1.91009281	4.92479262	1.08133920	11.91080038
3671	36.70000000	9.39269429	1.10973854	6.55934973	9.55551152	-2.82812498	1.51194261	7.65631355	2.69661503	0.84762993	6.61788149	-1.40160184	3.71914855	11.58287355	-1.58322615	2.27565010	10.38078755	2.10266599	-2.32183660	-11.08338868	0.99528478	5.68238998	4.52869999	1.34349256	12.23414149
3672	36.71000000	10.32687245	1.06872288	6.86232365	10.62151362	-2.17720446	2.83053781	11.88448368	1.73204245	3.71407694	8.14501521	-1.13854858	4.16639585	11.37914095	-0.86178203	2.22691611	10.74982188	2.55871924	-2.02642337	-7.98168890	-1.59835515	12.56062406	4.12064389	1.56031636	12.82783849
3673	36.72000000	11.19855151	0.78921590	7.22720096	11.54690416	-1.23315222	3.41160119	16.94042935	-1.57897245	8.63270048	10.79458519	-1.01842267	4.53313411	12.03691886	-0.26167325	2.06496438	11.26982493	3.32413395	-1.67146092	10.43998788	-3.05692566	16.32560441	4.39943869	1.86454007	12.81882685
3674	36.73000000	11.36139285	0.51989077	7.57576082	12.19657107	-0.47743389	3.99568117	20.52906215	-7.71446824	10.35804482	14.21192783	-0.59803602	4.72411725	12.89418036	-0.48658792	2.29365737	11.36206455	4.05856469	-1.39754515	22.00145346	6.29892692	15.77505618	4.58976775	2.13522392	12.78926140
3675	36.74000000	11.44486112	0.50024049	7.85879019	13.02790583	0.42091034	4.54376440	19.04731122	-12.26481156	4.90625366	17.82273281	-1.09399498	3.90031880	12.70422012	-1.58638727	2.12960552	11.38699334	4.37191855	-1.07395920	19.98464423	4.28557625	11.11280293	4.76622305	1.94100714	12.83620526
3676	36.75000000	11.70192793	0.49607552	7.98361808	13.48550423	1.68855918	4.58713262	14.71912383	-8.24806985	1.93533710	19.70487535	-1.90864054	3.21891640	12.60996055	-2.66736404	2.10152495	11.45623252	4.16074397	-0.64414480	14.83586833	-1.96847394	10.70623804	4.70337895	2.04708070	13.07256848
3677	36.76000000	12.05629825	0.39060895	8.20610013	13.37646548	2.60560009	3.87904062	10.12897796	-1.21260069	-0.06652964	16.55409253	-3.57035620	1.76372150	12.68970266	-3.08353649	2.80692136	11.50956062	3.49786023	-0.35456753	8.04912512	-3.25013849	8.39461219	4.92366981	2.22226391	13.03259099
3678	36.77000000	11.95238810	0.39451721	8.20929438	12.10139990	1.74110002	3.01026703	7.24340113	4.78249078	0.52705394	11.30107019	-6.51693384	-1.30740512	12.21853139	-2.99923070	3.14204380	11.57187501	2.74693630	-0.14925414	10.63162584	-9.04799413	7.54833570	4.98263427	2.07297787	12.71281868
3679	36.78000000	11.54270880	0.55811495	7.89706339	11.40233989	-0.22607997	2.93950564	4.98606568	8.21960096	-2.67010092	8.91646243	-5.45722830	-2.35378304	11.86761072	-2.65385858	2.76367906	11.79570110	1.83473075	-0.22505988	14.44639519	-4.31274352	9.23620694	5.20561212	1.63965521	12.64278775
3680	36.79000000	11.43265564	0.46717355	7.60906281	11.63083895	-1.83490419	3.24100589	6.69581493	9.53563711	-5.35766448	7.89493879	-1.34330009	-0.44398674	12.37021625	-1.97870205	1.79689409	11.90992725	1.08064866	0.11784359	6.37569649	-2.64504413	8.07082981	5.22417871	2.18942310	12.45160159
